<svg xmlns="http://www.w3.org/2000/svg" version="1.1" xmlns:xlink="http://www.w3.org/1999/xlink" xmlns:svgjs="http://svgjs.dev/svgjs" width="1920" height="1080" preserveAspectRatio="none" viewBox="0 0 1920 1080"><g mask="url(&quot;#SvgjsMask1024&quot;)" fill="none"><rect width="1920" height="1080" x="0" y="0" fill="rgba(25, 28, 30, 1)"></rect><path d="M0,850.814C159.825,851.533,322.258,792.029,438.534,682.372C547.134,579.953,546.933,413.878,607.828,277.586C668.061,142.777,789.109,33.331,794.455,-114.225C800.191,-272.54,747.335,-438.197,637.91,-552.752C530.172,-665.542,358.379,-668.457,212.445,-723.523C52.144,-784.01,-101.296,-951.703,-262.01,-892.323C-425.123,-832.056,-413.313,-588.046,-521.875,-452.207C-623.967,-324.464,-846.665,-286.87,-874.648,-125.755C-902.504,34.629,-730.094,154.916,-652.145,297.825C-580.837,428.559,-549.586,582.128,-436.006,678.439C-314.345,781.602,-159.51,850.097,0,850.814" fill="#141618"></path><path d="M1920 1873.616C2077.278 1873.0610000000001 2243.651 1874.4479999999999 2373.982 1786.4099999999999 2503.246 1699.0929999999998 2541.916 1534.6 2620.9629999999997 1400.1190000000001 2710.5879999999997 1247.641 2887.425 1119.442 2869.441 943.491 2851.5 767.961 2658.256 673.223 2533.875 548.074 2418.63 432.116 2327.233 271.89 2167.473 237.18499999999995 2009.583 202.88699999999994 1855.311 296.047 1711.348 369.39700000000005 1588.3220000000001 432.07899999999995 1477.895 515.259 1399.127 628.6610000000001 1325.7060000000001 734.365 1318.649 864.97 1281.531 988.202 1236.737 1136.918 1123.951 1276.359 1158.423 1427.801 1194.183 1584.9 1324.908 1708.226 1463.954 1789.621 1600.108 1869.324 1762.234 1874.173 1920 1873.616" fill="#1e2224"></path></g><defs><mask id="SvgjsMask1024"><rect width="1920" height="1080" fill="#ffffff"></rect></mask></defs></svg>