<svg xmlns="http://www.w3.org/2000/svg" version="1.1" xmlns:xlink="http://www.w3.org/1999/xlink" xmlns:svgjs="http://svgjs.dev/svgjs" width="1440" height="560" preserveAspectRatio="none" viewBox="0 0 1440 560"><g mask="url(&quot;#SvgjsMask1041&quot;)" fill="none"><rect width="1440" height="560" x="0" y="0" fill="rgba(251, 252, 254, 1)"></rect><path d="M0,426.987C79.673,410.068,153.484,387.287,228.493,355.542C319.233,317.14,426.783,300.91,485.271,221.616C547.315,137.5,575.151,22.26,548.959,-78.928C523.393,-177.696,411.524,-221.84,349.513,-302.854C281.908,-391.177,277.498,-551.127,168.95,-575.391C58.11,-600.167,-15.634,-453.18,-119.725,-407.745C-205.61,-370.257,-316.722,-397.79,-384.994,-333.599C-454.675,-268.082,-479.85,-164.657,-479.989,-69.012C-480.119,20.353,-414.034,91.394,-385.733,176.159C-352.989,274.231,-387.397,411.559,-300.717,467.924C-214.154,524.213,-101.003,448.436,0,426.987" fill="#aabfea"></path><path d="M1440 1075.741C1553.021 1076.933 1673.569 1132.1100000000001 1772.211 1076.9299999999998 1871.604 1021.3299999999999 1901.074 895.7629999999999 1947.58 791.804 1993.725 688.6510000000001 2054.984 585.696 2042.192 473.418 2029.259 359.903 1966.133 253.14800000000002 1877.933 180.529 1795.647 112.779 1681.858 113.68400000000003 1577.713 90.99200000000002 1481.564 70.04199999999997 1389.096 44.50599999999997 1291.029 52.64999999999998 1174.1190000000001 62.35899999999998 1043.1779999999999 61.658000000000015 958.1179999999999 142.447 871.67 224.555 841.483 355.579 846.677 474.693 851.481 584.856 940.45 666.919 985.3779999999999 767.619 1030.8310000000001 869.4970000000001 1019.9159999999999 1007.381 1112.263 1069.969 1204.579 1132.536 1328.485 1074.565 1440 1075.741" fill="#ffffff"></path></g><defs><mask id="SvgjsMask1041"><rect width="1440" height="560" fill="#ffffff"></rect></mask></defs></svg>